<?xml version="1.0" standalone="no"?>
<!DOCTYPE svg PUBLIC "-//W3C//DTD SVG 20010904//EN"
 "http://www.w3.org/TR/2001/REC-SVG-20010904/DTD/svg10.dtd">
<svg version="1.0" xmlns="http://www.w3.org/2000/svg"
 width="512.000000pt" height="512.000000pt" viewBox="0 0 512.000000 512.000000"
 preserveAspectRatio="xMidYMid meet">
<metadata>
Created by potrace 1.11, written by Peter Selinger 2001-2013
</metadata>
<g transform="translate(0.000000,512.000000) scale(0.100000,-0.100000)"
fill="#000000" stroke="none">
<path d="M2205 3460 c-126 -12 -220 -45 -325 -115 -83 -55 -127 -109 -176
-218 -24 -55 -24 -238 2 -313 10 -30 22 -54 26 -54 4 0 8 -7 8 -16 0 -27 112
-127 175 -157 33 -16 67 -33 76 -37 33 -17 154 -43 349 -75 225 -36 324 -78
371 -154 34 -56 36 -202 3 -235 -8 -8 -14 -17 -14 -21 0 -15 -65 -74 -103 -93
-95 -48 -136 -56 -277 -57 -136 0 -201 9 -315 47 -60 20 -166 67 -175 79 -3 3
-15 9 -26 13 -12 4 -33 17 -46 29 -36 32 -67 49 -78 42 -12 -7 -13 -265 -2
-280 4 -5 23 -16 42 -23 99 -37 219 -75 264 -83 226 -44 512 -35 641 20 75 31
136 65 165 91 9 8 31 26 49 40 17 14 31 30 31 37 0 7 4 13 9 13 9 0 25 24 52
80 68 141 67 304 -4 436 -31 59 -167 164 -212 164 -8 0 -15 4 -15 9 0 5 -18
12 -40 16 -22 4 -42 11 -46 16 -3 5 -17 9 -31 9 -15 0 -52 6 -82 14 -31 8 -99
22 -151 31 -144 24 -241 47 -270 62 -14 7 -30 13 -37 13 -7 0 -30 18 -52 40
-42 42 -71 112 -71 169 0 39 28 121 41 121 5 0 9 5 9 10 0 13 37 50 50 50 6 0
10 4 10 10 0 5 11 12 25 16 14 3 25 10 25 15 0 4 17 11 38 15 20 4 42 10 47
14 18 13 168 20 250 11 85 -10 167 -27 200 -41 11 -5 35 -12 53 -15 17 -4 32
-11 32 -16 0 -5 7 -9 15 -9 24 0 165 -84 173 -103 2 -4 10 -3 18 4 11 9 14 42
14 138 0 140 0 141 -70 156 -19 4 -37 11 -40 14 -6 8 -64 23 -195 50 -104 22
-294 31 -410 21z"/>
<path d="M480 2590 l0 -850 110 0 110 0 2 313 3 312 190 6 c105 4 215 12 245
17 76 15 170 53 198 79 7 7 17 13 22 13 11 0 121 108 137 135 7 11 27 49 45
85 30 62 32 72 36 202 4 124 2 145 -19 208 -12 38 -26 70 -31 70 -4 0 -8 6 -8
13 -1 40 -184 187 -234 187 -9 0 -16 4 -16 8 0 12 -96 32 -200 42 -47 4 -199
9 -337 9 l-253 1 0 -850z m635 630 c141 -58 182 -97 218 -204 44 -130 -11
-299 -121 -372 -66 -43 -88 -51 -167 -64 -75 -12 -317 -16 -334 -5 -13 7 -16
647 -3 660 11 12 373 -1 407 -15z"/>
<path d="M3227 3433 c-4 -3 -7 -386 -7 -850 l0 -843 105 0 105 0 0 716 c0 636
2 714 15 700 8 -8 15 -17 15 -21 0 -3 29 -66 64 -138 35 -73 78 -163 96 -202
17 -38 47 -102 66 -142 19 -39 34 -76 34 -81 0 -6 4 -12 8 -14 4 -1 23 -39 42
-83 19 -44 38 -81 42 -83 4 -2 8 -8 8 -14 0 -6 18 -49 40 -95 l40 -84 67 3 68
3 50 102 c28 56 69 141 91 190 23 48 68 142 99 208 31 66 74 156 95 200 21 44
58 121 81 170 l44 90 3 -712 2 -713 115 0 115 0 0 850 0 851 -156 -3 -157 -3
-28 -55 c-15 -30 -43 -90 -63 -132 -34 -74 -66 -142 -135 -289 -17 -37 -31
-72 -31 -78 0 -6 -4 -11 -10 -11 -5 0 -10 -5 -10 -11 0 -10 -15 -45 -75 -174
-18 -38 -42 -91 -54 -117 -12 -27 -25 -48 -29 -48 -9 0 -15 12 -105 200 -145
304 -167 351 -167 360 0 6 -4 10 -9 10 -5 0 -12 14 -16 30 -4 17 -11 30 -16
30 -5 0 -9 5 -9 11 0 6 -13 40 -30 76 -16 35 -30 69 -30 74 0 5 -4 9 -9 9 -5
0 -12 11 -15 25 -3 13 -16 40 -27 60 l-21 35 -147 0 c-81 0 -151 -3 -154 -7z"/>
</g>
</svg>
